<mxfile host="app.diagrams.net" modified="2024-01-20T00:38:27.985Z" agent="Mozilla/5.0 (Windows NT 10.0; Win64; x64) AppleWebKit/537.36 (KHTML, like Gecko) Chrome/119.0.0.0 Safari/537.36 OPR/105.0.0.0" etag="Fi7do29bP8ETELkoNjI7" version="22.1.21" type="google">
  <diagram name="Page-1" id="x6KLnYOFnxug7mtxDp_4">
    <mxGraphModel grid="1" page="1" gridSize="10" guides="1" tooltips="1" connect="1" arrows="1" fold="1" pageScale="1" pageWidth="827" pageHeight="1169" math="0" shadow="0">
      <root>
        <mxCell id="0" />
        <mxCell id="1" parent="0" />
        <mxCell id="br2ifium_Z9vHOW5vIv9-12" value="" style="rounded=0;whiteSpace=wrap;html=1;fillColor=none;" vertex="1" parent="1">
          <mxGeometry x="20" y="100" width="750" height="660" as="geometry" />
        </mxCell>
        <mxCell id="br2ifium_Z9vHOW5vIv9-1" value="" style="sketch=0;aspect=fixed;pointerEvents=1;shadow=0;dashed=0;html=1;strokeColor=none;labelPosition=center;verticalLabelPosition=bottom;verticalAlign=top;align=center;fillColor=#00188D;shape=mxgraph.azure.laptop" vertex="1" parent="1">
          <mxGeometry x="135" y="968" width="120" height="72" as="geometry" />
        </mxCell>
        <mxCell id="br2ifium_Z9vHOW5vIv9-5" value="" style="image;aspect=fixed;perimeter=ellipsePerimeter;html=1;align=center;shadow=0;dashed=0;spacingTop=3;image=img/lib/active_directory/generic_server.svg;" vertex="1" parent="1">
          <mxGeometry x="170.39999999999998" y="120" width="67.2" height="120" as="geometry" />
        </mxCell>
        <mxCell id="br2ifium_Z9vHOW5vIv9-6" value="" style="image;aspect=fixed;perimeter=ellipsePerimeter;html=1;align=center;shadow=0;dashed=0;spacingTop=3;image=img/lib/active_directory/web_server.svg;" vertex="1" parent="1">
          <mxGeometry x="600" y="300" width="88" height="110" as="geometry" />
        </mxCell>
        <mxCell id="br2ifium_Z9vHOW5vIv9-7" value="" style="image;aspect=fixed;perimeter=ellipsePerimeter;html=1;align=center;shadow=0;dashed=0;spacingTop=3;image=img/lib/active_directory/web_server.svg;" vertex="1" parent="1">
          <mxGeometry x="160" y="530" width="88" height="110" as="geometry" />
        </mxCell>
        <mxCell id="br2ifium_Z9vHOW5vIv9-8" value="&lt;font style=&quot;font-size: 24px;&quot;&gt;Client&amp;nbsp;&lt;/font&gt;" style="text;strokeColor=none;align=center;fillColor=none;html=1;verticalAlign=middle;whiteSpace=wrap;rounded=0;" vertex="1" parent="1">
          <mxGeometry x="100" y="610" width="190" height="100" as="geometry" />
        </mxCell>
        <mxCell id="br2ifium_Z9vHOW5vIv9-9" value="&lt;font style=&quot;font-size: 24px;&quot;&gt;Serveur d&#39;authenfication&lt;/font&gt;" style="text;strokeColor=none;align=center;fillColor=none;html=1;verticalAlign=middle;whiteSpace=wrap;rounded=0;" vertex="1" parent="1">
          <mxGeometry x="109" y="230" width="190" height="100" as="geometry" />
        </mxCell>
        <mxCell id="br2ifium_Z9vHOW5vIv9-10" value="&lt;font style=&quot;font-size: 24px;&quot;&gt;Serveur de log&lt;/font&gt;" style="text;strokeColor=none;align=center;fillColor=none;html=1;verticalAlign=middle;whiteSpace=wrap;rounded=0;" vertex="1" parent="1">
          <mxGeometry x="549" y="387" width="190" height="100" as="geometry" />
        </mxCell>
        <mxCell id="br2ifium_Z9vHOW5vIv9-11" value="&lt;font style=&quot;font-size: 24px;&quot;&gt;PC externe&lt;/font&gt;" style="text;strokeColor=none;align=center;fillColor=none;html=1;verticalAlign=middle;whiteSpace=wrap;rounded=0;" vertex="1" parent="1">
          <mxGeometry x="100" y="1020" width="190" height="100" as="geometry" />
        </mxCell>
        <mxCell id="br2ifium_Z9vHOW5vIv9-13" value="&lt;font style=&quot;font-size: 24px;&quot;&gt;Environnement&amp;nbsp;dockerisé&lt;/font&gt;" style="text;strokeColor=none;align=center;fillColor=none;html=1;verticalAlign=middle;whiteSpace=wrap;rounded=0;" vertex="1" parent="1">
          <mxGeometry x="230" y="30" width="330" height="100" as="geometry" />
        </mxCell>
        <mxCell id="br2ifium_Z9vHOW5vIv9-14" value="" style="shape=flexArrow;endArrow=classic;startArrow=classic;html=1;rounded=0;entryX=0.5;entryY=1;entryDx=0;entryDy=0;exitX=0.5;exitY=0;exitDx=0;exitDy=0;" edge="1" parent="1" source="br2ifium_Z9vHOW5vIv9-7" target="br2ifium_Z9vHOW5vIv9-9">
          <mxGeometry width="100" height="100" relative="1" as="geometry">
            <mxPoint x="190" y="470" as="sourcePoint" />
            <mxPoint x="290" y="370" as="targetPoint" />
          </mxGeometry>
        </mxCell>
        <mxCell id="br2ifium_Z9vHOW5vIv9-15" value="&lt;font style=&quot;&quot;&gt;&lt;font style=&quot;font-size: 18px;&quot;&gt;Connection TCP&lt;/font&gt;&lt;br&gt;&lt;/font&gt;" style="text;strokeColor=none;align=center;fillColor=none;html=1;verticalAlign=middle;whiteSpace=wrap;rounded=0;" vertex="1" parent="1">
          <mxGeometry x="30" y="387" width="190" height="100" as="geometry" />
        </mxCell>
        <mxCell id="br2ifium_Z9vHOW5vIv9-16" value="" style="shape=flexArrow;endArrow=classic;html=1;rounded=0;entryX=0;entryY=0.5;entryDx=0;entryDy=0;exitX=0.989;exitY=0.837;exitDx=0;exitDy=0;exitPerimeter=0;" edge="1" parent="1" source="br2ifium_Z9vHOW5vIv9-5" target="br2ifium_Z9vHOW5vIv9-10">
          <mxGeometry width="50" height="50" relative="1" as="geometry">
            <mxPoint x="380" y="300" as="sourcePoint" />
            <mxPoint x="430" y="250" as="targetPoint" />
          </mxGeometry>
        </mxCell>
        <mxCell id="br2ifium_Z9vHOW5vIv9-17" value="" style="shape=flexArrow;endArrow=classic;html=1;rounded=0;entryX=0;entryY=0.5;entryDx=0;entryDy=0;exitX=0.75;exitY=0;exitDx=0;exitDy=0;" edge="1" parent="1" source="br2ifium_Z9vHOW5vIv9-8" target="br2ifium_Z9vHOW5vIv9-10">
          <mxGeometry width="50" height="50" relative="1" as="geometry">
            <mxPoint x="310" y="570" as="sourcePoint" />
            <mxPoint x="622" y="787" as="targetPoint" />
          </mxGeometry>
        </mxCell>
        <mxCell id="br2ifium_Z9vHOW5vIv9-18" value="&lt;font style=&quot;&quot;&gt;&lt;font style=&quot;font-size: 18px;&quot;&gt;Connection HTTP&lt;/font&gt;&lt;br&gt;&lt;/font&gt;" style="text;strokeColor=none;align=center;fillColor=none;html=1;verticalAlign=middle;whiteSpace=wrap;rounded=0;rotation=35;" vertex="1" parent="1">
          <mxGeometry x="299" y="250" width="190" height="100" as="geometry" />
        </mxCell>
        <mxCell id="br2ifium_Z9vHOW5vIv9-19" value="&lt;font style=&quot;&quot;&gt;&lt;font style=&quot;font-size: 18px;&quot;&gt;Connection HTTP&lt;/font&gt;&lt;br&gt;&lt;/font&gt;" style="text;strokeColor=none;align=center;fillColor=none;html=1;verticalAlign=middle;whiteSpace=wrap;rounded=0;rotation=-30;" vertex="1" parent="1">
          <mxGeometry x="280" y="460" width="190" height="100" as="geometry" />
        </mxCell>
        <mxCell id="br2ifium_Z9vHOW5vIv9-20" value="" style="shape=flexArrow;endArrow=classic;html=1;rounded=0;exitX=0.5;exitY=0;exitDx=0;exitDy=0;exitPerimeter=0;" edge="1" parent="1" source="br2ifium_Z9vHOW5vIv9-1" target="br2ifium_Z9vHOW5vIv9-8">
          <mxGeometry width="50" height="50" relative="1" as="geometry">
            <mxPoint x="230" y="913" as="sourcePoint" />
            <mxPoint x="537" y="740" as="targetPoint" />
          </mxGeometry>
        </mxCell>
        <mxCell id="br2ifium_Z9vHOW5vIv9-21" value="&lt;font style=&quot;&quot;&gt;&lt;span style=&quot;font-size: 18px;&quot;&gt;Déclanchement de la procédure de connection&lt;/span&gt;&lt;br&gt;&lt;/font&gt;" style="text;strokeColor=none;align=center;fillColor=none;html=1;verticalAlign=middle;whiteSpace=wrap;rounded=0;" vertex="1" parent="1">
          <mxGeometry y="830" width="190" height="100" as="geometry" />
        </mxCell>
        <mxCell id="br2ifium_Z9vHOW5vIv9-22" value="" style="shape=flexArrow;endArrow=classic;html=1;rounded=0;exitX=0.957;exitY=0.656;exitDx=0;exitDy=0;exitPerimeter=0;" edge="1" parent="1" source="br2ifium_Z9vHOW5vIv9-1" target="br2ifium_Z9vHOW5vIv9-10">
          <mxGeometry width="50" height="50" relative="1" as="geometry">
            <mxPoint x="380" y="920" as="sourcePoint" />
            <mxPoint x="430" y="870" as="targetPoint" />
          </mxGeometry>
        </mxCell>
        <mxCell id="br2ifium_Z9vHOW5vIv9-23" value="&lt;font style=&quot;&quot;&gt;&lt;span style=&quot;font-size: 18px;&quot;&gt;Récupération des logs sur le serveur HTTP&lt;/span&gt;&lt;br&gt;&lt;/font&gt;" style="text;strokeColor=none;align=center;fillColor=none;html=1;verticalAlign=middle;whiteSpace=wrap;rounded=0;" vertex="1" parent="1">
          <mxGeometry x="370" y="830" width="190" height="100" as="geometry" />
        </mxCell>
      </root>
    </mxGraphModel>
  </diagram>
</mxfile>
